<?xml version="1.0" standalone="no"?>
<!DOCTYPE svg PUBLIC "-//W3C//DTD SVG 20010904//EN"
 "http://www.w3.org/TR/2001/REC-SVG-20010904/DTD/svg10.dtd">
<svg version="1.0" xmlns="http://www.w3.org/2000/svg"
 width="100.000000pt" height="100.000000pt" viewBox="0 0 100.000000 100.000000"
 preserveAspectRatio="xMidYMid meet">

<g transform="translate(0.000000,100.000000) scale(0.100000,-0.100000)"
fill="#000000" stroke="none">
<path d="M651 966 c-49 -27 -65 -92 -31 -126 11 -11 20 -27 20 -36 0 -24 19
-54 35 -54 19 0 19 -3 -7 -53 -17 -33 -23 -38 -26 -22 -11 61 -36 115 -68 146
-32 31 -40 34 -95 34 -56 0 -63 -3 -90 -33 -47 -52 -35 -112 27 -138 19 -8 34
-21 34 -28 0 -22 29 -46 56 -46 56 0 10 -107 -76 -177 -33 -27 -59 -53 -59
-60 -2 -28 23 -21 81 24 79 61 122 87 176 108 39 16 44 16 61 1 10 -9 29 -16
44 -16 15 0 37 -11 51 -25 34 -34 77 -33 117 3 27 24 33 37 36 83 3 42 0 61
-17 87 -21 34 -72 62 -111 62 -20 0 -20 1 5 30 55 66 57 162 6 210 -43 40
-122 52 -169 26z m147 -62 c20 -22 23 -35 19 -67 -6 -44 -48 -111 -86 -136
-23 -15 -24 -15 -13 6 19 34 14 59 -13 71 -23 11 -25 16 -19 46 5 31 3 35 -18
38 -15 2 -24 11 -26 25 -8 58 110 71 156 17z m-250 -113 c49 -50 69 -180 31
-215 -9 -8 -10 -4 -6 19 8 43 -6 60 -50 60 -34 0 -38 3 -41 28 -2 18 -9 27
-22 27 -10 0 -28 8 -40 18 -18 15 -22 25 -16 46 13 53 98 63 144 17z m323
-160 c32 -33 38 -77 16 -121 -19 -37 -65 -34 -87 5 -10 17 -24 28 -31 26 -48
-13 -62 -13 -71 3 -5 9 -19 16 -31 16 -20 1 -18 4 16 34 81 72 141 84 188 37z"/>
<path d="M173 501 c-26 -12 -52 -36 -70 -62 -31 -47 -34 -93 -18 -254 7 -78 7
-82 -19 -112 -48 -57 -21 -75 36 -22 37 34 49 34 195 8 85 -15 135 -4 188 42
41 36 59 86 53 144 -6 50 -36 114 -60 129 -26 16 -34 -2 -16 -35 16 -27 16
-30 2 -36 -25 -9 -95 17 -126 47 -20 21 -28 38 -28 64 0 44 11 50 48 29 34
-19 52 -12 36 14 -33 52 -153 76 -221 44z m99 -71 c-4 -41 0 -56 19 -84 32
-47 91 -78 153 -82 50 -2 51 -3 54 -36 4 -47 -26 -98 -72 -122 -36 -18 -45
-19 -120 -7 -45 7 -102 15 -127 18 l-46 5 -6 62 c-4 33 -9 88 -12 121 -5 47
-2 68 12 95 23 44 76 80 118 80 l32 0 -5 -50z"/>
</g>
</svg>
